<svg width="119" height="136" viewBox="0 0 119 136" fill="none" xmlns="http://www.w3.org/2000/svg">
<path d="M72.5707 57.6512L68.1305 49.6312L106.657 50.783L117.31 69.2346L68.3202 65.1185L59.235 49.3824L80.8086 6.01178L91.4214 24.3937L72.5707 57.6512Z" fill="#1A1E16"/>
<path d="M46.1503 38.3331L36.9131 39.872L51.9505 4.47049L73.3609 0.523621L51.7168 44.6855L33.4574 48.0515L0 14.0472L21.3296 10.1153L46.1503 38.3331Z" fill="#1A1E16"/>
<path d="M66.7409 89.4804L72.941 82.4555L84.2574 118.645L70.1341 135.213L58.267 88.2359L70.3117 74.1058L118.526 78.4428L104.456 94.9488L66.7409 89.4804Z" fill="#1A1E16"/>
<path d="M35.1849 57.8337L53.9667 54.3527L63.0812 71.1396L49.9325 84.9955L32.6916 76.772L35.1849 57.8337Z" fill="#1A1E16"/>
</svg>
